<?xml version="1.0" encoding="UTF-8"?>
<svg xmlns="http://www.w3.org/2000/svg" width="1200" height="900" viewBox="0 0 1200 900" fill="none">
  <rect width="1200" height="900" rx="48" fill="#f0fdf4"/>
  <rect x="56" y="56" width="1088" height="788" rx="36" stroke="#16a34a" stroke-width="8" stroke-dasharray="18 18"/>
  <circle cx="150" cy="140" r="22" fill="#16a34a" fill-opacity="0.18"/>
  <circle cx="1050" cy="160" r="16" fill="#16a34a" fill-opacity="0.22"/>
  <path d="M240 565C325 418 468 356 622 356C770 356 886 414 956 532" stroke="#16a34a" stroke-width="20" stroke-linecap="round"/>
  <path d="M260 575H950" stroke="#14532d" stroke-opacity="0.18" stroke-width="10" stroke-linecap="round"/>
  <path d="M320 520C372 470 443 444 521 444H705C775 444 838 470 886 514" stroke="#14532d" stroke-opacity="0.4" stroke-width="14" stroke-linecap="round"/>
  <path d="M410 640C478 666 556 678 642 678C739 678 824 662 898 630" stroke="#16a34a" stroke-opacity="0.4" stroke-width="12" stroke-linecap="round"/>
</svg>